<mxfile host="app.diagrams.net" modified="2022-09-28T02:08:00.559Z" agent="5.0 (Macintosh; Intel Mac OS X 10_15_7) AppleWebKit/537.36 (KHTML, like Gecko) Chrome/105.0.0.0 Safari/537.36" etag="FOfO9R9LZwzJLoCdo16n" version="20.3.6" type="github">
  <diagram id="L3DYJd3ip9_Pa9qVwgF8" name="Page-1">
    <mxGraphModel dx="1298" dy="734" grid="1" gridSize="10" guides="1" tooltips="1" connect="1" arrows="1" fold="1" page="1" pageScale="1" pageWidth="850" pageHeight="1100" math="0" shadow="0">
      <root>
        <mxCell id="0" />
        <mxCell id="1" parent="0" />
        <mxCell id="D-1D-L4UW3rj7d5zvuvt-1" value="C++ Basic" style="ellipse" vertex="1" parent="1">
          <mxGeometry x="250" y="641" width="80" height="30" as="geometry" />
        </mxCell>
        <mxCell id="D-1D-L4UW3rj7d5zvuvt-2" value="数据类型" style="rounded=1;" vertex="1" parent="1">
          <mxGeometry x="380" y="438" width="80" height="30" as="geometry" />
        </mxCell>
        <mxCell id="D-1D-L4UW3rj7d5zvuvt-3" value="" style="edgeStyle=elbowEdgeStyle;elbow=horizontal;" edge="1" source="D-1D-L4UW3rj7d5zvuvt-1" target="D-1D-L4UW3rj7d5zvuvt-2" parent="1">
          <mxGeometry relative="1" as="geometry" />
        </mxCell>
        <mxCell id="D-1D-L4UW3rj7d5zvuvt-4" value="值" style="rounded=1;" vertex="1" parent="1">
          <mxGeometry x="510" y="368" width="80" height="30" as="geometry" />
        </mxCell>
        <mxCell id="D-1D-L4UW3rj7d5zvuvt-5" value="" style="edgeStyle=elbowEdgeStyle;elbow=horizontal;" edge="1" source="D-1D-L4UW3rj7d5zvuvt-2" target="D-1D-L4UW3rj7d5zvuvt-4" parent="1">
          <mxGeometry relative="1" as="geometry" />
        </mxCell>
        <mxCell id="D-1D-L4UW3rj7d5zvuvt-6" value="指针" style="rounded=1;" vertex="1" parent="1">
          <mxGeometry x="510" y="438" width="80" height="30" as="geometry" />
        </mxCell>
        <mxCell id="D-1D-L4UW3rj7d5zvuvt-7" value="" style="edgeStyle=elbowEdgeStyle;elbow=horizontal;" edge="1" source="D-1D-L4UW3rj7d5zvuvt-2" target="D-1D-L4UW3rj7d5zvuvt-6" parent="1">
          <mxGeometry relative="1" as="geometry" />
        </mxCell>
        <mxCell id="D-1D-L4UW3rj7d5zvuvt-8" value="引用" style="rounded=1;" vertex="1" parent="1">
          <mxGeometry x="510" y="508" width="80" height="30" as="geometry" />
        </mxCell>
        <mxCell id="D-1D-L4UW3rj7d5zvuvt-9" value="" style="edgeStyle=elbowEdgeStyle;elbow=horizontal;" edge="1" source="D-1D-L4UW3rj7d5zvuvt-2" target="D-1D-L4UW3rj7d5zvuvt-8" parent="1">
          <mxGeometry relative="1" as="geometry" />
        </mxCell>
        <mxCell id="D-1D-L4UW3rj7d5zvuvt-10" value="内存管理" style="rounded=1;" vertex="1" parent="1">
          <mxGeometry x="380" y="564" width="80" height="30" as="geometry" />
        </mxCell>
        <mxCell id="D-1D-L4UW3rj7d5zvuvt-11" value="" style="edgeStyle=elbowEdgeStyle;elbow=horizontal;" edge="1" source="D-1D-L4UW3rj7d5zvuvt-1" target="D-1D-L4UW3rj7d5zvuvt-10" parent="1">
          <mxGeometry relative="1" as="geometry" />
        </mxCell>
        <mxCell id="D-1D-L4UW3rj7d5zvuvt-12" value="类&amp;继承" style="rounded=1;" vertex="1" parent="1">
          <mxGeometry x="380" y="634" width="80" height="30" as="geometry" />
        </mxCell>
        <mxCell id="D-1D-L4UW3rj7d5zvuvt-13" value="" style="edgeStyle=elbowEdgeStyle;elbow=horizontal;" edge="1" source="D-1D-L4UW3rj7d5zvuvt-1" target="D-1D-L4UW3rj7d5zvuvt-12" parent="1">
          <mxGeometry relative="1" as="geometry" />
        </mxCell>
        <mxCell id="D-1D-L4UW3rj7d5zvuvt-14" value="STL 容器" style="rounded=1;" vertex="1" parent="1">
          <mxGeometry x="380" y="704" width="80" height="30" as="geometry" />
        </mxCell>
        <mxCell id="D-1D-L4UW3rj7d5zvuvt-15" value="" style="edgeStyle=elbowEdgeStyle;elbow=horizontal;" edge="1" source="D-1D-L4UW3rj7d5zvuvt-1" target="D-1D-L4UW3rj7d5zvuvt-14" parent="1">
          <mxGeometry relative="1" as="geometry" />
        </mxCell>
        <mxCell id="D-1D-L4UW3rj7d5zvuvt-16" value="并发编程" style="rounded=1;" vertex="1" parent="1">
          <mxGeometry x="380" y="774" width="80" height="30" as="geometry" />
        </mxCell>
        <mxCell id="D-1D-L4UW3rj7d5zvuvt-17" value="" style="edgeStyle=elbowEdgeStyle;elbow=horizontal;" edge="1" source="D-1D-L4UW3rj7d5zvuvt-1" target="D-1D-L4UW3rj7d5zvuvt-16" parent="1">
          <mxGeometry relative="1" as="geometry" />
        </mxCell>
        <mxCell id="D-1D-L4UW3rj7d5zvuvt-18" value="模板编程" style="rounded=1;" vertex="1" parent="1">
          <mxGeometry x="380" y="844" width="80" height="30" as="geometry" />
        </mxCell>
        <mxCell id="D-1D-L4UW3rj7d5zvuvt-19" value="" style="edgeStyle=elbowEdgeStyle;elbow=horizontal;" edge="1" source="D-1D-L4UW3rj7d5zvuvt-1" target="D-1D-L4UW3rj7d5zvuvt-18" parent="1">
          <mxGeometry relative="1" as="geometry" />
        </mxCell>
      </root>
    </mxGraphModel>
  </diagram>
</mxfile>
